<?xml version="1.0" encoding="UTF-8" standalone="no"?>
<!-- Created with Inkscape (http://www.inkscape.org/) -->

<svg
   xmlns:osb="http://www.openswatchbook.org/uri/2009/osb"
   xmlns:dc="http://purl.org/dc/elements/1.1/"
   xmlns:cc="http://creativecommons.org/ns#"
   xmlns:rdf="http://www.w3.org/1999/02/22-rdf-syntax-ns#"
   xmlns:svg="http://www.w3.org/2000/svg"
   xmlns="http://www.w3.org/2000/svg"
   xmlns:sodipodi="http://sodipodi.sourceforge.net/DTD/sodipodi-0.dtd"
   xmlns:inkscape="http://www.inkscape.org/namespaces/inkscape"
   width="869.13599"
   height="147.27541"
   id="svg3144"
   version="1.1"
   inkscape:version="0.48.3.1 r9886"
   sodipodi:docname="BlackElectronics (copy).svg">
  <sodipodi:namedview
     id="base"
     pagecolor="#ffffff"
     bordercolor="#666666"
     borderopacity="1.0"
     inkscape:pageopacity="0.0"
     inkscape:pageshadow="2"
     inkscape:zoom="0.67394618"
     inkscape:cx="761.33366"
     inkscape:cy="150.50688"
     inkscape:document-units="px"
     inkscape:current-layer="layer3"
     showgrid="false"
     showguides="true"
     inkscape:guide-bbox="true"
     inkscape:window-width="1920"
     inkscape:window-height="1056"
     inkscape:window-x="0"
     inkscape:window-y="24"
     inkscape:window-maximized="1"
     fit-margin-top="0"
     fit-margin-left="0"
     fit-margin-right="0"
     fit-margin-bottom="0" />
  <defs
     id="defs3146">
    <linearGradient
       id="linearGradient3773"
       osb:paint="solid">
      <stop
         style="stop-color:#000000;stop-opacity:1;"
         offset="0"
         id="stop3775" />
    </linearGradient>
  </defs>
  <metadata
     id="metadata3149">
    <rdf:RDF>
      <cc:Work
         rdf:about="">
        <dc:format>image/svg+xml</dc:format>
        <dc:type
           rdf:resource="http://purl.org/dc/dcmitype/StillImage" />
        <dc:title />
      </cc:Work>
    </rdf:RDF>
  </metadata>
  <g
     style="display:inline"
     id="layer1"
     inkscape:groupmode="layer"
     inkscape:label="Layer 1"
     transform="translate(-57.679017,-397.25204)" />
  <g
     style="display:inline"
     inkscape:label="Layer"
     id="layer3"
     inkscape:groupmode="layer"
     transform="translate(-57.679017,-397.25204)">
    <path
       inkscape:export-ydpi="300"
       inkscape:export-xdpi="300"
       inkscape:export-filename="/home/hemal/Dropbox/logo lab/Final Do not touch/rect4756.png"
       sodipodi:nodetypes="ccccc"
       inkscape:connector-curvature="0"
       id="rect4324-1"
       d="m 153.24406,397.38473 86.97088,0 -25.04537,24.54927 -86.37456,0 z"
       style="fill:#000000;fill-opacity:1;fill-rule:nonzero;stroke:none;display:inline" />
    <path
       inkscape:export-ydpi="300"
       inkscape:export-xdpi="300"
       inkscape:export-filename="/home/hemal/Dropbox/logo lab/Final Do not touch/rect4756.png"
       sodipodi:nodetypes="ccccc"
       inkscape:connector-curvature="0"
       id="rect4331-6"
       d="m 111.88725,436.96745 86.9432,0 -21.5867,21.95355 -87.062493,0 z"
       style="fill:#000000;fill-opacity:1;stroke:none;display:inline" />
    <path
       inkscape:export-ydpi="300"
       inkscape:export-xdpi="300"
       inkscape:export-filename="/home/hemal/Dropbox/logo lab/Final Do not touch/rect4756.png"
       sodipodi:nodetypes="ccccccccccccccc"
       inkscape:connector-curvature="0"
       id="rect4344-6"
       d="m 74.199927,474.67033 87.163653,-0.23863 -16.93546,16.70378 52.476,52.62477 -21.56986,0 -51.90633,-51.80983 -11.07772,0 51.94862,51.80983 -21.4471,0 -52.080173,-51.80983 -10.88923,0 51.442613,51.80983 -21.34592,0 -52.237503,-52.14752 z"
       style="fill:#000000;fill-opacity:1;stroke:#000000;stroke-width:0.1;stroke-miterlimit:4;stroke-opacity:1;display:inline" />
    <path
       inkscape:export-ydpi="300"
       inkscape:export-xdpi="300"
       inkscape:export-filename="/home/hemal/Dropbox/logo lab/Final Do not touch/rect4756.png"
       inkscape:connector-curvature="0"
       id="rect4485-7"
       d="m 262.64925,397.4003 0,61.64981 92.87973,0 c 20.87012,-0.30606 30.38447,-5.99699 30.72358,-14.12685 0.17734,-4.2527 0.2856,-7.63084 -0.41359,-10.04839 -1.05818,-3.65878 -3.64879,-5.43702 -6.5583,-7.21119 6.05948,-3.72968 6.05958,-6.5517 6.38105,-12.53093 -0.0979,-3.39512 0.0344,-9.11677 -5.61296,-12.70826 -2.43478,-1.50954 -5.39805,-3.40879 -16.30713,-4.49222 L 262.64925,397.4003 z m 39.34981,17.67334 46.14445,0 0,3.96024 -46.14445,0 0,-3.96024 z m 0.23633,21.16072 46.08537,0 0,4.55133 -46.08537,0 0,-4.55133 z"
       style="fill:#000000;fill-opacity:1;fill-rule:nonzero;stroke:#000000;stroke-width:0.1;stroke-linejoin:round;stroke-miterlimit:4;stroke-opacity:1;display:inline" />
    <rect
       inkscape:export-ydpi="300"
       inkscape:export-xdpi="300"
       inkscape:export-filename="/home/hemal/Dropbox/logo lab/Final Do not touch/rect4756.png"
       y="415.1431"
       x="301.88742"
       height="3.4843876"
       width="46.078594"
       id="rect4488-6"
       style="fill:none;stroke:#920000;stroke-width:0.07300001;stroke-linejoin:round;stroke-miterlimit:4;stroke-opacity:0;stroke-dasharray:none;display:inline" />
    <path
       inkscape:export-ydpi="300"
       inkscape:export-xdpi="300"
       inkscape:export-filename="/home/hemal/Dropbox/logo lab/Final Do not touch/rect4756.png"
       inkscape:connector-curvature="0"
       id="rect4503-7"
       d="m 392.81086,397.4003 0,61.76803 146.58691,0 11.58042,-11.5852 52.58458,0.0592 11.28501,11.5852 44.96277,-0.0592 -65.76027,-61.76803 -31.49166,0 -56.48412,53.67021 0.0592,-10.63947 -73.79566,0.0592 0.23633,-43.08985 -39.7634,0 z m 184.75504,24.23434 7.09006,7.62496 -14.53462,-0.0592 7.44456,-7.56584 z"
       style="fill:#000000;fill-opacity:1;fill-rule:nonzero;stroke:#00009d;stroke-width:0.07300001;stroke-linejoin:round;stroke-miterlimit:4;stroke-opacity:0.03196345;display:inline" />
    <path
       inkscape:export-ydpi="300"
       inkscape:export-xdpi="300"
       inkscape:export-filename="/home/hemal/Dropbox/logo lab/Final Do not touch/rect4756.png"
       sodipodi:nodetypes="sccsccccccccsccsccs"
       inkscape:connector-curvature="0"
       id="rect4512-6"
       d="m 659.79079,402.31792 c 6.63802,-4.93317 28.62326,-4.93317 28.62326,-4.93317 l 50.40241,0 c 0,0 21.68223,-1.15533 33.11495,5.90696 7.25105,4.47917 5.2619,20.02573 5.2619,20.02573 l -38.95307,3.23211 -0.54304,-10.59271 -44.62863,0.0204 0.017,24.35595 44.69668,0.14584 0.19064,-12.25183 38.97508,4.25136 c 0,0 2.16929,15.22513 -3.47086,20.12626 -6.63588,5.76639 -19.25773,6.69432 -19.25773,6.69432 l -61.66758,0 c 0,0 -25.70898,-0.14961 -32.30746,-4.47955 -6.59959,-4.33063 -6.80158,-10.60347 -6.80158,-10.60347 l 0,-30.6197 c 0,0 -0.19417,-6.41655 6.34814,-11.27861 z"
       style="fill:#000000;fill-opacity:1;fill-rule:nonzero;stroke:#00009d;stroke-width:0.07300001;stroke-linejoin:round;stroke-miterlimit:4;stroke-opacity:0.03196345;display:inline" />
    <path
       inkscape:export-ydpi="300"
       inkscape:export-xdpi="300"
       inkscape:export-filename="/home/hemal/Dropbox/logo lab/Final Do not touch/rect4756.png"
       sodipodi:nodetypes="cccccccccccc"
       inkscape:connector-curvature="0"
       id="rect4515-0"
       d="m 784.03279,397.38475 39.33579,0 0,17.57797 43.09485,-17.57797 60.28905,0 -74.30717,29.53702 74.30717,32.4909 -61.89414,-0.10157 -41.43331,-18.98432 -0.39653,18.91571 -38.99571,0.17005 z"
       style="fill:#000000;fill-opacity:1;fill-rule:nonzero;stroke:#00009d;stroke-width:0.07300001;stroke-linejoin:round;stroke-miterlimit:4;stroke-opacity:0.03196345;display:inline" />
    <path
       inkscape:export-ydpi="300"
       inkscape:export-xdpi="300"
       inkscape:export-filename="/home/hemal/Dropbox/logo lab/Final Do not touch/rect4756.png"
       inkscape:connector-curvature="0"
       id="path3411"
       d="m 81.208877,458.90946 103.042153,0 0,0"
       style="fill:none;stroke:none" />
    <path
       id="path24"
       d="m 328.2741,474.62837 c 1.11032,0 2.22505,0 3.33989,0 0,22.07994 0,44.16428 0,66.2442 5.16307,-0.006 10.32616,0 15.48928,0 0.0363,1.208 0.0815,2.41598 0.12138,3.62837 -6.28684,0 -12.57829,0 -18.86521,0 -0.0276,-23.29232 -0.0586,-46.58024 -0.0851,-69.87257 z"
       inkscape:connector-curvature="0"
       style="fill:#000000" />
    <path
       id="path26"
       d="m 461.2828,476.11512 c 1.19595,-1.28761 3.06897,-1.54428 4.75689,-1.49117 2.27011,0.0399 4.54473,-0.0796 6.81493,0.0664 3.16827,0.3938 5.21732,3.62835 5.19918,6.58856 0.0312,5.15938 0,10.32755 0.0132,15.48693 -0.97487,0 -1.94977,0 -2.91551,0.006 -0.0132,-4.4381 0.0225,-8.87621 -0.0132,-13.30991 -0.0815,-1.53096 -0.10758,-3.18586 -0.97039,-4.51775 -0.96575,-1.21239 -2.71686,-1.01328 -4.10246,-1.05752 -1.77815,0.0796 -3.58799,-0.18139 -5.33008,0.19471 -1.86389,1.05309 -2.08962,3.4425 -2.18888,5.34077 -0.0902,17.11967 -0.0363,34.24379 -0.0501,51.36348 0.0675,1.88497 0.0276,4.08412 1.43968,5.54873 1.48486,1.15045 3.51135,0.83187 5.27602,0.90709 1.57063,-0.084 3.50224,0.30089 4.70719,-0.9602 0.95686,-1.32302 0.96136,-3.04869 1.05162,-4.60624 0.0312,-4.43812 0,-8.88064 0.0132,-13.31876 0.97039,0 1.94065,0 2.92005,0 -0.0113,5.16821 0.0132,10.33642 -0.0113,15.50463 -0.0113,2.19027 -0.83042,4.54874 -2.70798,5.86731 -1.91808,1.21686 -4.3055,0.64605 -6.44479,0.77437 -2.43261,-0.12824 -5.32108,0.54425 -7.28886,-1.24337 -1.71956,-1.76996 -2.13018,-4.36733 -2.13018,-6.71692 0,-18.00021 0,-35.99602 0,-53.99627 -0.0132,-2.25224 0.39257,-4.68146 1.95866,-6.42926 z"
       inkscape:connector-curvature="0"
       style="fill:#000000" />
    <path
       id="path28"
       d="m 525.05424,474.80978 c 6.27343,0 12.55125,0 18.82917,0 0,1.08852 0,2.17704 0,3.26554 -2.72601,0 -5.44751,0 -8.16886,0 0,22.14188 0,44.28374 0,66.42562 -1.00193,0 -2.00386,0 -2.99677,0 0,-22.14188 0,-44.28374 0,-66.42562 -2.55902,0 -5.11352,0 -7.66354,0 0,-1.0885 -0.0113,-2.17702 0,-3.26554 z"
       inkscape:connector-curvature="0"
       style="fill:#000000" />
    <path
       style="fill:#000000"
       d="m 591.4375,166.40625 0,69.8125 3.03125,0 0,-31.03125 c 1.73308,0.0974 3.58009,-0.24917 5.25,0.34375 1.65633,1.44693 2.17188,3.65181 2.78125,5.65625 2.17084,8.27002 3.73915,16.68158 5.5625,25.03125 l 3.875,0 c -1.53898,-7.0753 -3.00513,-14.15671 -4.59375,-21.21875 -0.93421,-3.60624 -1.70035,-7.34065 -3.8125,-10.5 2.46412,-1.23451 3.96928,-3.65648 4.75,-6.1875 1.7963,-5.75227 1.94648,-11.88349 1.53125,-17.84375 -0.36551,-3.64165 -0.85338,-7.36914 -2.4375,-10.71875 -0.83493,-1.87612 -2.74065,-3.21035 -4.84375,-3.28125 -3.69626,-0.1414 -7.39747,-0.0182 -11.09375,-0.0625 z m 6.46875,2.09375 c 1.90315,-0.0241 3.78408,0.11889 5.375,1.25 2.0806,1.41152 2.63871,3.99362 3.03125,6.28125 1.05164,6.60186 0.81188,13.40175 -0.78125,19.90625 -0.60025,2.00444 -1.08713,4.35064 -2.9375,5.625 -2.38753,1.55754 -5.3907,0.69384 -8.0625,0.90625 l 0,-33.9375 c 1.095,0.0531 2.23311,-0.0168 3.375,-0.0313 z"
       transform="translate(0,308.26777)"
       id="path30"
       inkscape:connector-curvature="0" />
    <path
       style="fill:#000000"
       d="m 665.15625,166.34375 c -1.18361,-0.0105 -2.36685,0.0265 -3.53125,0.25 -3.16374,0.79203 -4.15625,4.40014 -4.15625,7.21875 -0.0226,18.15067 -0.0199,36.31367 -0.0313,54.46875 -0.009,2.25667 0.39885,4.67668 1.90625,6.46875 1.07415,1.20798 2.78229,1.5354 4.34375,1.5 2.23404,-0.0401 4.4847,0.0566 6.71875,-0.0937 3.49322,-0.40708 5.755,-3.92199 5.6875,-7.1875 0.0639,-17.78343 0.0937,-35.56034 0.0937,-53.34375 0.009,-2.59295 0.23719,-5.50606 -1.46875,-7.6875 -1.43064,-1.76556 -3.96883,-1.60695 -6.03125,-1.59375 -1.17799,0.0487 -2.34764,0.0105 -3.53125,0 z m -0.71875,3.25 c 1.10576,-0.0468 2.28337,0.11975 3.375,0.0313 1.68341,0.0132 4.10808,-0.26413 4.84375,1.65625 1.04711,3.09296 0.48057,6.45709 0.625,9.65625 l 0,45.53125 c -0.0815,1.77878 -0.16911,3.6706 -1.03125,5.28125 -0.96135,1.44691 -2.95685,1.16566 -4.46875,1.21875 -1.9046,-0.0972 -4.09841,0.31499 -5.71875,-0.90625 -1.31323,-1.34072 -1.35625,-3.35035 -1.4375,-5.09375 -0.0113,-17.11524 -0.0277,-34.2285 0.0313,-51.34375 0.0637,-1.95136 0.19591,-4.29312 1.875,-5.625 0.60762,-0.27379 1.2428,-0.37817 1.90625,-0.40625 z"
       transform="translate(0,308.26777)"
       id="path32"
       inkscape:connector-curvature="0" />
    <path
       id="path34"
       d="m 788.16953,474.62837 c 1.10567,0 2.22051,0 3.33974,0 0,23.29233 0,46.58025 0,69.87257 -1.09215,0 -2.17534,0 -3.25401,0 -0.0276,-23.29232 -0.0586,-46.58024 -0.0851,-69.87257 z"
       inkscape:connector-curvature="0"
       style="fill:#000000" />
    <path
       id="path36"
       d="m 841.51101,475.90715 c 1.83238,-1.67258 4.50419,-1.22126 6.78789,-1.27878 2.17086,0.11954 4.55388,-0.41593 6.5352,0.71683 2.03539,1.24339 3.22234,3.59296 3.23134,5.92043 0.0314,5.16821 0,10.33642 0.0132,15.50463 -0.98388,-0.006 -1.94964,-0.006 -2.91553,0 -0.0225,-4.59741 0.0414,-9.19483 -0.0312,-13.78779 -0.13519,-1.50886 -0.13084,-3.31422 -1.33592,-4.42926 -1.62015,-1.03985 -3.67821,-0.53984 -5.49255,-0.66373 -1.46682,0.12389 -3.33073,-0.42921 -4.40489,0.84072 -1.16893,1.44248 -1.31336,3.38942 -1.35393,5.15936 -0.0588,17.11083 -0.0414,34.2261 -0.0312,51.33692 0.0864,1.74781 0.11779,3.78765 1.45331,5.12395 1.6202,1.20357 3.80004,0.79205 5.70462,0.8894 1.50289,-0.0488 3.46621,0.22127 4.44095,-1.19913 0.81241,-1.46019 0.82141,-3.19031 0.88013,-4.80979 0.0113,-4.29209 0,-8.58417 0,-12.87628 0.96574,0 1.93613,0 2.92003,0 -0.0113,5.16379 0.0132,10.32757 -0.0113,15.49135 -0.0113,2.19915 -0.83492,4.5797 -2.726,5.88945 -1.64285,1.08409 -3.7099,0.69914 -5.56481,0.76551 -2.16632,-0.0929 -4.39135,0.25221 -6.50801,-0.29647 -2.96519,-0.99559 -3.70987,-4.50448 -3.76408,-7.21248 -0.0132,-18.15067 0,-36.30134 -0.0113,-54.44759 -0.0113,-2.34074 0.41971,-4.916 2.17543,-6.63725 z"
       inkscape:connector-curvature="0"
       style="fill:#000000" />
    <path
       id="path38"
       d="m 907.4129,475.8983 c 1.7059,-1.56197 4.19271,-1.2478 6.3365,-1.27435 2.16634,0.0753 4.35969,-0.15491 6.52155,0.13713 2.54096,0.56638 3.47969,3.39385 3.66019,5.65051 0.0953,5.4514 0.0113,10.9028 0.0414,16.35861 -0.98391,-0.006 -1.9543,-0.006 -2.9155,-0.006 -0.0132,-4.4381 0.017,-8.87621 -0.0132,-13.31433 -0.0815,-1.52656 -0.10758,-3.17261 -0.96585,-4.50448 -0.95224,-1.20356 -2.6808,-1.02213 -4.05277,-1.06194 -1.80078,0.0885 -3.64217,-0.19028 -5.4023,0.19911 -1.8459,1.06194 -2.07609,3.43809 -2.17083,5.32749 -0.0539,6.2169 -0.0365,12.43379 -0.0539,18.6507 0,1.38052 0.0724,2.9956 1.22312,3.97791 1.00193,0.84957 2.41905,0.68585 3.66021,0.71683 2.70783,0.0399 5.42933,-0.115 8.13732,0.0753 1.9181,0.26548 2.48666,2.43365 2.46412,4.04871 0.0312,8.55323 0,17.10641 0.0132,25.66406 0,2.20796 -0.36564,4.57969 -1.84135,6.33636 -1.03358,1.20354 -2.68995,1.63277 -4.22893,1.61947 -2.73948,-0.0132 -5.47452,0.0443 -8.20049,-0.0308 -1.72409,-0.0929 -2.90651,-1.55754 -3.62406,-2.94693 -1.05162,-1.94694 -0.84406,-4.19477 -0.85307,-6.31425 0,-4.28325 0,-8.57091 0,-12.85416 0.96587,0 1.93174,0 2.91554,0 0.0363,4.8275 -0.0864,9.65057 0.0637,14.47365 0.13102,1.59736 0.40621,3.83632 2.35586,4.23456 2.19799,0.28762 4.46358,0.24336 6.67511,0.0221 2.50931,-0.46462 3.50672,-3.23897 3.50222,-5.46025 0.0113,-7.07087 -0.0675,-14.14177 -0.11268,-21.21266 0.11779,-1.70355 -0.78974,-3.75226 -2.72587,-3.93808 -2.87947,-0.24339 -5.77694,0.0265 -8.66082,-0.13278 -1.22762,-0.0308 -2.41007,-0.71238 -2.99675,-1.76992 -0.92532,-1.57967 -0.92084,-3.46466 -0.93434,-5.23015 0.0132,-7.07531 -0.0132,-14.15063 0.0113,-21.23037 0.0312,-2.20355 0.52364,-4.60625 2.17547,-6.21246 z"
       inkscape:connector-curvature="0"
       style="fill:#000000" />
    <path
       id="path40"
       d="m 262.46715,474.89827 c 6.09731,0 12.19013,0 18.28748,0 -0.017,1.05755 -0.0316,2.11509 -0.045,3.17705 -4.9961,0 -9.99223,0 -14.98834,0 0,9.60631 0,19.2082 0,28.81452 4.60345,0 9.21144,0 13.82393,0 -0.006,1.1947 -0.006,2.38498 -0.006,3.5797 -4.60797,0.006 -9.21594,0 -13.81939,0 0,10.19483 0,20.38521 0,30.58003 5.16309,0 10.32618,0 15.48928,0 0.0408,1.15044 0.0813,2.30091 0.12195,3.45137 -6.28686,0 -12.57827,0 -18.86519,0 0,-23.19942 0,-46.40324 0,-69.60267 z"
       inkscape:connector-curvature="0"
       style="fill:#000000" />
    <path
       id="path42"
       d="m 393.35006,474.89827 c 6.09729,0 12.19007,0 18.2875,0 -0.017,1.05755 -0.0312,2.11509 -0.045,3.17705 -4.99612,0 -9.99221,0 -14.98834,0 0,9.60631 0,19.2082 0,28.81452 4.60343,0 9.21148,0 13.82391,0 0,1.1947 0,2.38498 0,3.5797 -4.60791,0.006 -9.216,0 -13.81939,0 0,10.19483 0,20.38521 0,30.58003 5.16309,0 10.32617,0 15.48928,0 0.0414,1.15044 0.0764,2.30091 0.12138,3.45137 -6.28695,0 -12.5784,0 -18.86522,0 0,-23.19942 0,-46.40324 0,-69.60267 z"
       inkscape:connector-curvature="0"
       style="fill:#000000" />
    <path
       id="path44"
       d="m 723.26521,474.89827 c 1.13273,-0.0308 2.27011,-0.0577 3.41196,-0.0885 4.05727,17.59314 8.10118,35.19071 12.16308,52.78385 0,-17.59757 0,-35.19071 0,-52.78385 1.0471,0 2.10323,0 3.16837,0 0,23.23038 0,46.46077 0,69.69115 -0.90267,-0.006 -1.7873,0 -2.67193,0 -4.25591,-18.50023 -8.57056,-36.9872 -12.79031,-55.49186 -0.0724,18.49581 -0.0132,36.99163 -0.0312,55.49186 -1.09217,0 -2.17536,0 -3.25401,0 0,-23.19941 0,-46.40324 0,-69.60267 z"
       inkscape:connector-curvature="0"
       style="fill:#000000" />
  </g>
</svg>
